<svg id="Layer_1" data-name="Layer 1" xmlns="http://www.w3.org/2000/svg" viewBox="0 0 1920 1080"><defs><style>.cls-1{fill:#ebeae6;stroke:#000;stroke-miterlimit:10;stroke-width:0.75px;}.cls-2{fill:#0e4b29;}.cls-3{fill:#6e6d6e;}</style></defs><title>HOTEL LOCATION FINDER</title><rect class="cls-1" width="1920" height="1080"/><path class="cls-2" d="M859.76,629.15l-.42-88.79,16.11-.08.18,37.16,18.09-.08-.18-37.17,16.23-.07.42,88.79L894,629l-.19-40.12-18.09.08.19,40.13Z"/><path class="cls-2" d="M936.2,629.15a22.73,22.73,0,0,1-11.41-2.52,16,16,0,0,1-6.78-7.48,28.72,28.72,0,0,1-2.3-11.94L915.6,586a28.59,28.59,0,0,1,2.2-12,16,16,0,0,1,6.7-7.54,22.71,22.71,0,0,1,11.39-2.63,23,23,0,0,1,11.47,2.52,16,16,0,0,1,6.83,7.47,28.79,28.79,0,0,1,2.3,11.94L956.6,607a28.62,28.62,0,0,1-2.2,12,15.93,15.93,0,0,1-6.76,7.54A23,23,0,0,1,936.2,629.15Zm.06-10.3A4.6,4.6,0,0,0,940,617.4a7.37,7.37,0,0,0,1.52-3.9,41.25,41.25,0,0,0,.3-5.42l-.11-23.24a41.14,41.14,0,0,0-.35-5.37,7.69,7.69,0,0,0-1.56-3.89,5.43,5.43,0,0,0-7.45,0,8,8,0,0,0-1.57,3.9,34,34,0,0,0-.36,5.37l.11,23.24a34.65,34.65,0,0,0,.41,5.42,7.72,7.72,0,0,0,1.61,3.89A4.62,4.62,0,0,0,936.26,618.85Z"/><path class="cls-2" d="M981.88,629.15q-6,0-9.49-1.93a10.84,10.84,0,0,1-4.91-5.67,24.79,24.79,0,0,1-1.46-8.88L965.84,575l-6.36,0-.05-9.86,6.36,0-.09-19,15-.07.09,19,9.65,0,0,9.87-9.64,0,.17,36.4q0,3.29,1.45,4.65a5.93,5.93,0,0,0,4.28,1.35c.8,0,1.59,0,2.35-.12l2.25-.23.06,11.4-4.33.51A47.77,47.77,0,0,1,981.88,629.15Z"/><path class="cls-2" d="M1014.11,629.15q-7.12,0-11.64-2.63a16,16,0,0,1-6.67-7.86,33,33,0,0,1-2.19-12.54L993.52,587a33.29,33.29,0,0,1,2.07-12.72,15.6,15.6,0,0,1,6.65-7.82,22.86,22.86,0,0,1,11.56-2.68q7.56,0,11.79,2.79a15.52,15.52,0,0,1,6.07,8.25,41.74,41.74,0,0,1,1.87,13.2l0,9-25.22.12.06,12.49a17.51,17.51,0,0,0,.63,5,5,5,0,0,0,1.93,2.84,5.58,5.58,0,0,0,3.19.87,5,5,0,0,0,3.17-.95,5.25,5.25,0,0,0,1.74-2.75,15.87,15.87,0,0,0,.53-4.55l0-5.26,13.92-.07,0,4.28q.06,9.64-4.75,14.82T1014.11,629.15Zm-5.78-39.33,11.18-.05,0-6a21.06,21.06,0,0,0-.57-5.31,5.37,5.37,0,0,0-1.77-3,5.48,5.48,0,0,0-3.4-.91,4.84,4.84,0,0,0-3.18,1,5.88,5.88,0,0,0-1.74,3.3,30.26,30.26,0,0,0-.51,6.58Z"/><path class="cls-2" d="M1039.23,629.15l-.42-88.79,14.79-.07.43,88.79Z"/><path class="cls-2" d="M1083.19,629.15l-.43-88.79,36.51-.18,0,11.19-20.28.09.12,25.87,16.56-.08,0,11.29-16.55.08.19,40.45Z"/><path class="cls-2" d="M1122.68,555.7l0-12.38,14.9-.07.06,12.38Zm.35,73.45-.3-63.36,14.91-.07.3,63.36Z"/><path class="cls-2" d="M1144.22,629.15l-.3-63.36,14.91-.07,0,6.36a31.92,31.92,0,0,1,7.15-5.35,16.91,16.91,0,0,1,8.16-2.07,9.49,9.49,0,0,1,6.26,1.89,11.18,11.18,0,0,1,3.42,5.08,21.06,21.06,0,0,1,1.13,6.9l.24,50.43-14.91.07-.23-47.47a9.07,9.07,0,0,0-.89-4.38c-.59-1-1.73-1.53-3.41-1.52a8,8,0,0,0-3.34.89,22.56,22.56,0,0,0-3.55,2.21l.24,50.32Z"/><path class="cls-2" d="M1205.51,629.15q-7.56,0-11.48-5.32t-4-17.19l-.09-19.4a43.35,43.35,0,0,1,1.43-11.85,18,18,0,0,1,4.72-8.41,12.36,12.36,0,0,1,8.87-3.16,14.53,14.53,0,0,1,6.31,1.34,21.15,21.15,0,0,1,5.33,3.54l-.14-29.38,14.91-.07.42,88.79-14.91.07,0-4.49a21.51,21.51,0,0,1-5.35,4A12.86,12.86,0,0,1,1205.51,629.15Zm5.43-10.33a8.2,8.2,0,0,0,2.74-.56,18.08,18.08,0,0,0,3.17-1.55l-.19-40.67a15.42,15.42,0,0,0-2.86-1.47,8.69,8.69,0,0,0-3.18-.58,4.46,4.46,0,0,0-4.43,2.92A17.81,17.81,0,0,0,1205,584l.12,23.68a33.56,33.56,0,0,0,.46,5.7,8.29,8.29,0,0,0,1.72,4A4.56,4.56,0,0,0,1210.94,618.82Z"/><path class="cls-2" d="M1257.25,629.07q-7.12,0-11.63-2.63a15.93,15.93,0,0,1-6.67-7.86,33,33,0,0,1-2.2-12.54l-.09-19.08a33.18,33.18,0,0,1,2.08-12.73,15.53,15.53,0,0,1,6.65-7.81q4.53-2.65,11.55-2.69,7.56,0,11.8,2.8a15.58,15.58,0,0,1,6.07,8.25,42.33,42.33,0,0,1,1.87,13.2l0,9-25.21.12.06,12.49a17.55,17.55,0,0,0,.62,5,5,5,0,0,0,1.93,2.84,5.63,5.63,0,0,0,3.19.87,5,5,0,0,0,3.17-1,5.29,5.29,0,0,0,1.74-2.75,15.87,15.87,0,0,0,.53-4.55l0-5.26,13.92-.07,0,4.28q0,9.65-4.76,14.82T1257.25,629.07Zm-5.78-39.33,11.18,0,0-6a21,21,0,0,0-.58-5.31,5.37,5.37,0,0,0-1.77-3,5.46,5.46,0,0,0-3.4-.91,4.83,4.83,0,0,0-3.17,1,5.82,5.82,0,0,0-1.74,3.3,30.15,30.15,0,0,0-.52,6.58Z"/><path class="cls-2" d="M1281.58,629.15l-.3-63.36,14.91-.07,0,9.75a27.4,27.4,0,0,1,6.54-8.08,11.77,11.77,0,0,1,7.23-2.5,10,10,0,0,1,1.15,0l1.15.16.07,15.46a19.52,19.52,0,0,0-2.91-.92,14,14,0,0,0-3.23-.37,10.37,10.37,0,0,0-5.37,1.46,14.85,14.85,0,0,0-4.58,4.73l.21,43.63Z"/><path class="cls-3" d="M724.4,485.91,641.72,554.4v69.88a8,8,0,0,0,8,8h56.55V577.18h36.86v55.11h56.55a8,8,0,0,0,8-8V554.93Z"/><path class="cls-3" d="M807.7,512V452.41a3.89,3.89,0,0,0-3.88-3.89H774.9a3.89,3.89,0,0,0-3.88,3.89v29.23l-36.6-30.32a15.71,15.71,0,0,0-20,0L608.71,538.86a3,3,0,0,0-.4,4.21l10.5,12.67a3,3,0,0,0,4.21.39l101.38-84,101.38,84a3,3,0,0,0,4.2-.39l10.5-12.67a3,3,0,0,0-.39-4.21Z"/></svg>